# ProBuilder 5.0.7
# https://unity3d.com/unity/features/worldbuilding/probuilder
# 2023-06-17 2:36:02 AM

mtllib ./Bridge_length_and_its_road's_width.mtl
o Bridge length and its road's width

g Plane (1)
v 91.91167 0 -1.907349E-06
v 91.91167 0 3.047676
v 45.95583 0 -1.907349E-06
v 45.95583 0 3.047676
v 91.91167 0 6.095354
v 45.95583 0 7.105942
v -3.814697E-06 0 -1.907349E-06
v -3.814697E-06 0 3.047676
v -7.629395E-06 0 7.105942

vt -91.91167 -1.907349E-06
vt -91.91167 3.047676
vt -45.95583 -1.907349E-06
vt -45.95583 3.047676
vt -91.91167 6.095354
vt -45.95583 7.105942
vt 3.814697E-06 -1.907349E-06
vt 3.814697E-06 3.047676
vt 7.629395E-06 7.105942

vn 0 1 0

usemtl ProBuilderDefault
f 3/3/1 4/4/1 2/2/1 1/1/1
f 4/4/1 6/6/1 5/5/1 2/2/1
f 7/7/1 8/8/1 4/4/1 3/3/1
f 8/8/1 9/9/1 6/6/1 4/4/1

